# AST/ASF file generated using VICON BodyLanguage
# -----------------------------------------------
:version 1.10
:name VICON
:units
  mass 1.0
  length 0.45
  angle deg
:documentation
   .ast/.asf automatically generated from VICON data using
   VICON BodyBuilder and BodyLanguage model FoxedUp or BRILLIANT.MOD
:root
   order TX TY TZ RX RY RZ
   axis XYZ
   position 0 0 0  
   orientation 0 0 0 
:bonedata
  begin
     id 1 
     name lhipjoint
     direction 0.64773 -0.699417 0.302095 
     length 2.48597 
     axis 0 0 0  XYZ
  end
  begin
     id 2 
     name lfemur
     direction 0.34202 -0.939693 0  
     length 6.71947  
     axis 0 0 20  XYZ
    dof rx ry rz
    limits (-160.0 20.0)
           (-70.0 70.0)
           (-60.0 70.0)
  end
  begin
     id 3 
     name ltibia
     direction 0.34202 -0.939693 0   
     length 8.08777   
     axis 0 0 20   XYZ
    dof rx
    limits (-10.0 170.0)
  end
  begin
     id 4 
     name lfoot
     direction 0.0808503 -0.222134 0.971658   
     length 2.08264   
     axis -90 7.62852e-016 20   XYZ
    dof rx rz
    limits (-45.0 90.0)
           (-70.0 20.0)
  end
  begin
     id 5 
     name ltoes
     direction 1.53502e-011 -4.22007e-011 1   
     length 1.04662   
     axis -90 7.62852e-016 20   XYZ
    dof rx
    limits (-90.0 20.0)
  end
  begin
     id 6 
     name rhipjoint
     direction -0.610924 -0.726792 0.313919   
     length 2.39233  
     axis 0 0 0  XYZ 
  end
  begin
     id 7 
     name rfemur
     direction -0.34202 -0.939693 0   
     length 6.96955   
     axis 0 0 -20   XYZ
    dof rx ry rz
    limits (-160.0 20.0)
           (-70.0 70.0)
           (-70.0 60.0)
  end
  begin
     id 8 
     name rtibia
     direction -0.34202 -0.939693 0   
     length 8.19584   
     axis 0 0 -20   XYZ
    dof rx
    limits (-10.0 170.0)
 end
 begin
     id 9 
     name rfoot
     direction -0.077777 -0.213691 0.9738   
     length 2.07539  
     axis -90 -7.62852e-016 -20   XYZ
    dof rx rz
    limits (-45.0 90.0)
           (-20.0 70.0)
  end
  begin
     id 10 
     name rtoes
     direction -1.53558e-011 -4.22006e-011 1   
     length 1.04381   
     axis -90 -7.62852e-016 -20   XYZ
    dof rx
    limits (-90.0 20.0)
  end
  begin
     id 11 
     name lowerback
     direction -0.00971646 0.996074 0.0879841   
     length 1.67643   
     axis 0 0 0   XYZ
    dof rx ry rz
    limits (-20.0 45.0)
           (-30.0 30.0)
           (-30.0 30.0)
  end
  begin
     id 12 
     name upperback
     direction 0.0127391 0.991676 0.128127   
     length 1.63741   
     axis 0 0 0   XYZ
    dof rx ry rz
    limits (-20.0 45.0)
           (-30.0 30.0)
           (-30.0 30.0)
  end
  begin
     id 13 
     name thorax
     direction 0.0167583 0.996049 0.0872067   
     length 1.65931   
     axis 0 0 0   XYZ
    dof rx ry rz
    limits (-20.0 45.0)
           (-30.0 30.0)
           (-30.0 30.0)
  end
  begin
     id 14 
     name lowerneck
     direction -0.0317829 0.998312 0.0486079   
     length 1.79021   
     axis 0 0 0   XYZ
    dof rx ry rz
    limits (-20.0 45.0)
           (-30.0 30.0)
           (-30.0 30.0)
  end
  begin
     id 15 
     name upperneck
     direction 0.0896851 0.972452 -0.215159   
     length 1.78797   
     axis 0 0 0   XYZ
    dof rx ry rz
    limits (-20.0 45.0)
           (-30.0 30.0)
           (-30.0 30.0)
  end
  begin
     id 16
     name head
     direction 0.0310949 0.996503 -0.0775582  
     length 1.81549  
     axis 0 0 0   XYZ
    dof rx ry rz
    limits (-20.0 45.0)
           (-30.0 30.0)
           (-30.0 30.0)
  end
  begin
     id 17 
     name lclavicle
     direction 0.853638 0.502051 -0.138733  
     length 3.31627  
     axis 0 0 0   XYZ
    dof ry rz
    limits (-20.0 10.0)
           (0.0 20.0)
  end
  begin
     id 18 
     name lhumerus
     direction 1 -4.48962e-011 -1.41788e-018   
     length 5.54893   
     axis 180 -30 -90   XYZ
    dof rx ry rz
    limits (-60.0 90.0)
           (-90.0 90.0)
           (-90.0 90.0)
  end
  begin
     id 19
     name lradius
     direction 1 -4.48962e-011 -4.95754e-027   
     length 3.02898   
     axis 180 -30 -90   XYZ
    dof rx
    limits (-10.0 170.0)
  end
  begin
     id 20
     name lwrist
     direction 1 -4.48952e-011 -1.03764e-026   
     length 1.51449   
     axis 9.09556e-015 90 90   XYZ
    dof ry
    limits (-180.0 0.0)
 end
  begin
     id 21 
     name lhand
     direction 1 -4.4902e-011 -2.07528e-026   
     length 0.640951   
     axis 1.3242e-014 90 90   XYZ
    dof rx rz
    limits (-90.0 90.0)
           (-45.0 45.0)
  end
  begin
     id 22 
     name lfingers
     direction 1 -4.49014e-011 -4.15056e-026   
     length 0.516751   
     axis 2.64841e-014 90 90   XYZ
    dof rx
    limits (0.0 90.0)
  end
  begin
     id 23
     name lthumb
     direction 0.707107 -6.35008e-011 0.707107   
     length 0.741954   
     axis -90 45 2.85299e-015   XYZ
    dof rx rz
    limits (-45.0 45.0)
           (-45.0 45.0)
  end
  begin
     id 24 
     name rclavicle
     direction -0.888531 0.455324 -0.0565039   
     length 3.20126  
     axis 0 0 0   XYZ 
    dof ry rz
    limits (-10.0 20.0)
           (-20.0 0.0)
  end
  begin
     id 25 
     name rhumerus
     direction -1 -4.48946e-011 -8.98298e-028  
     length 5.3519   
     axis 180 30 90   XYZ
    dof rx ry rz
    limits (-90.0 60.0)
           (-90.0 90.0)
           (-90.0 90.0)
  end
  begin
     id 26 
     name rradius
     direction -1 -4.4899e-011 -3.18779e-027   
     length 3.02531   
     axis 180 30 90   XYZ
    dof rx
    limits (-10.0 170.0)
  end
  begin
     id 27 
     name rwrist
     direction -1 -4.4897e-011 -1.03764e-026   
     length 1.51266   
     axis 9.09556e-015 -90 -90   XYZ
    dof ry
    limits (-180.0 0.0)
  end
  begin
     id 28
     name rhand
     direction -1 -4.48941e-011 -2.07528e-026   
     length 0.78389   
     axis 1.3242e-014 -90 -90   XYZ
    dof rx rz
    limits (-90.0 90.0)
           (-45.0 45.0)
  end
  begin
     id 29
     name rfingers
     direction -1 -4.49012e-011 -4.15056e-026   
     length 0.631992   
     axis 2.64841e-014 -90 -90   XYZ
    dof rx
    limits (0.0 90.0)
  end
  begin
     id 30
     name rthumb
     direction -0.707107 -6.3496e-011 0.707107   
     length 0.907418   
     axis -90 -45 -2.85299e-015   XYZ
    dof rx rz
    limits (-45.0 45.0)
           (-45.0 45.0)
  end
:hierarchy
  begin
    root lhipjoint rhipjoint lowerback
    lhipjoint lfemur
    lfemur ltibia
    ltibia lfoot
    lfoot ltoes
    rhipjoint rfemur
    rfemur rtibia
    rtibia rfoot
    rfoot rtoes
    lowerback upperback
    upperback thorax
    thorax lowerneck lclavicle rclavicle
    lowerneck upperneck
    upperneck head
    lclavicle lhumerus
    lhumerus lradius
    lradius lwrist
    lwrist lhand lthumb
    lhand lfingers
    rclavicle rhumerus
    rhumerus rradius
    rradius rwrist
    rwrist rhand rthumb
    rhand rfingers
  end

#!OML:ASF E:\Style3\Style3.ASF
:FULLY-SPECIFIED
:DEGREES
609
root -0.400403 17.8822 0.53375 -51.3023 87.9647 -68.0911
lowerback -8.94312 -1.60732 -1.20563
upperback -10.7352 -1.46789 1.58819
thorax -6.17551 -0.341936 2.26201
lowerneck -13.822 -3.36509 -5.9116
upperneck 25.2871 -5.40816 9.47523
head 10.8463 -1.74016 3.7451
rclavicle 1.41448e-014 -1.57785e-014
rhumerus -35.9594 -4.57158 -79.0462
rradius 1.55865
rwrist 11.29
rhand -17.9923 21.1707
rfingers 7.12502
rthumb 8.27778 -8.6471
lclavicle 1.41448e-014 -1.57785e-014
lhumerus -107.537 51.4306 -26.54
lradius 8.68144
lwrist -97.348
lhand -13.8762 2.03575
lfingers 7.12502
lthumb 12.2485 31.6571
rfemur -17.1272 12.532 17.1765
rtibia 12.342
rfoot -11.4002 -18.6158
rtoes -16.6212
lfemur 0 0 0
ltibia 0
lfoot 0 0
ltoes 0
610
root -0.400234 17.8832 0.534007 -50.8792 87.9712 -67.6357
lowerback -8.91931 -1.60287 -1.21365
upperback -10.7218 -1.46412 1.57622
thorax -6.17434 -0.340881 2.25439
lowerneck -13.8227 -3.37014 -5.91528
upperneck 25.286 -5.41769 9.48774
head 10.8474 -1.74334 3.74904
rclavicle -1.87945e-014 -6.01324e-015
rhumerus -36.0226 -4.59533 -79.0317
rradius 1.6703
rwrist 11.3585
rhand -17.9392 21.0749
rfingers 7.12502
rthumb 8.32898 -8.74093
lclavicle -1.87945e-014 -6.01324e-015
lhumerus -106.594 51.5968 -25.3391
lradius 8.62598
lwrist -96.5809
lhand -13.8485 2.22193
lfingers 7.12502
lthumb 12.2751 31.8417
rfemur -17.0519 12.5487 17.1686
rtibia 12.2751
rfoot -11.3835 -18.5979
rtoes -16.8612
lfemur 0 0 0
ltibia 0
lfoot 0 0
ltoes 0
611
root -0.400224 17.8833 0.53439 -50.6836 87.9752 -67.4429
lowerback -8.92232 -1.59212 -1.20501
upperback -10.7136 -1.45192 1.55038
thorax -6.16503 -0.336967 2.22269
lowerneck -13.8864 -3.38312 -5.87359
upperneck 25.3243 -5.44475 9.47878
head 10.8756 -1.75018 3.73567
rclavicle 4.92303e-015 8.41108e-015
rhumerus -36.033 -4.66158 -79.0361
rradius 1.67587
rwrist 11.4307
rhand -17.9281 21.0995
rfingers 7.12502
rthumb 8.33971 -8.71582
lclavicle 4.92303e-015 8.41108e-015
lhumerus -105.615 51.84 -24.1336
lradius 8.5666
lwrist -95.7633
lhand -13.7492 2.3952
lfingers 7.12502
lthumb 12.3709 32.0092
rfemur -17.0197 12.5791 17.1556
rtibia 12.1998
rfoot -11.3579 -18.6248
rtoes -17.0213
lfemur 0 0 0
ltibia 0
lfoot 0 0
ltoes 0
612
root -0.400013 17.8848 0.534513 -50.268 87.9859 -67.0353
lowerback -8.9339 -1.59222 -1.22551
upperback -10.7172 -1.45073 1.54732
thorax -6.16213 -0.334863 2.23081
lowerneck -13.8797 -3.38554 -5.83457
upperneck 25.3155 -5.44275 9.42063
head 10.8678 -1.753 3.70727
rclavicle 6.00081e-015 -3.73964e-015
rhumerus -36.0194 -4.69443 -79.0353
rradius 1.64718
rwrist 11.4812
rhand -17.823 21.0871
rfingers 7.12502
rthumb 8.44118 -8.72418
lclavicle 6.00081e-015 -3.73964e-015
lhumerus -104.675 52.0766 -22.9507
lradius 8.49699
lwrist -94.9321
lhand -13.648 2.58208
lfingers 7.12502
lthumb 12.4685 32.1901
rfemur -16.9836 12.5971 17.1274
rtibia 12.1186
rfoot -11.3848 -18.6125
rtoes -16.8749
lfemur 0 0 0
ltibia 0
lfoot 0 0
ltoes 0
613
root -0.399833 17.8879 0.534721 -49.6642 88.001 -66.4337
lowerback -8.92509 -1.57999 -1.24269
upperback -10.7235 -1.43392 1.53279
thorax -6.17477 -0.32548 2.22603
lowerneck -13.8507 -3.40459 -5.84687
upperneck 25.2832 -5.47079 9.43847
head 10.8536 -1.7663 3.71123
rclavicle -3.93221e-015 2.86995e-015
rhumerus -36.039 -4.74582 -79.0098
rradius 1.66598
rwrist 11.5293
rhand -17.8111 21.0612
rfingers 7.12502
rthumb 8.45265 -8.74962
lclavicle -3.93221e-015 2.86995e-015
lhumerus -103.701 52.2905 -21.7012
lradius 8.49542
lwrist -94.1981
lhand -13.4962 2.89814
lfingers 7.12502
lthumb 12.6149 32.4972
rfemur -16.9476 12.5278 17.119
rtibia 12.0538
rfoot -11.2549 -18.5664
rtoes -17.0724
lfemur 0 0 0
ltibia 0
lfoot 0 0
ltoes 0
614
root -0.399663 17.8878 0.535081 -49.7445 87.9907 -66.513
lowerback -8.92447 -1.57509 -1.21817
upperback -10.7198 -1.42879 1.53174
thorax -6.17184 -0.32487 2.21136
lowerneck -13.8657 -3.408 -5.85597
upperneck 25.2798 -5.47503 9.44568
head 10.8562 -1.76815 3.71468
rclavicle -6.4605e-015 5.28022e-015
rhumerus -36.0528 -4.76868 -78.9931
rradius 1.66562
rwrist 11.5947
rhand -17.8221 21.0248
rfingers 7.12502
rthumb 8.44206 -8.78644
lclavicle -6.4605e-015 5.28022e-015
lhumerus -102.748 52.4801 -20.4878
lradius 8.47512
lwrist -93.4988
lhand -13.4191 3.05523
lfingers 7.12502
lthumb 12.6892 32.6497
rfemur -16.9257 12.4751 17.1409
rtibia 12.0153
rfoot -11.2068 -18.5109
rtoes -17.0523
lfemur 0 0 0
ltibia 0
lfoot 0 0
ltoes 0
615
root -0.399511 17.8867 0.536068 -49.3718 87.9842 -66.1352
lowerback -8.92421 -1.57251 -1.23819
upperback -10.7126 -1.42509 1.53515
thorax -6.1637 -0.32191 2.2262
lowerneck -13.8883 -3.39202 -5.82361
upperneck 25.2884 -5.45009 9.40692
head 10.8594 -1.7577 3.69827
rclavicle 5.96975e-015 1.71452e-015
rhumerus -36.0908 -4.78412 -78.9664
rradius 1.73827
rwrist 11.6589
rhand -17.7627 21.0165
rfingers 7.12502
rthumb 8.49939 -8.79245
lclavicle 5.96975e-015 1.71452e-015
lhumerus -101.778 52.6484 -19.2625
lradius 8.42683
lwrist -92.7899
lhand -13.4434 3.15938
lfingers 7.12502
lthumb 12.6657 32.7553
rfemur -16.95 12.5017 17.1371
rtibia 12.055
rfoot -11.1617 -18.5586
rtoes -17.2218
lfemur 0 0 0
ltibia 0
lfoot 0 0
ltoes 0
616
root -0.400414 17.8847 0.535219 -49.1311 88.0238 -65.9124
lowerback -8.93989 -1.59284 -1.27132
upperback -10.7148 -1.45014 1.54009
thorax -6.15536 -0.331898 2.24872
lowerneck -13.8736 -3.37521 -5.80819
upperneck 25.2552 -5.42289 9.38329
head 10.8403 -1.74815 3.68954
rclavicle -2.32951e-015 -8.57259e-015
rhumerus -36.1067 -4.76304 -78.9515
rradius 1.80161
rwrist 11.6723
rhand -17.7411 21.0389
rfingers 7.12502
rthumb 8.52022 -8.76924
lclavicle -2.32951e-015 -8.57259e-015
lhumerus -100.881 52.7815 -18.0816
lradius 8.40988
lwrist -92.0963
lhand -13.427 3.24711
lfingers 7.12502
lthumb 12.6815 32.8421
rfemur -16.9968 12.4994 17.0845
rtibia 12.096
rfoot -11.2417 -18.5982
rtoes -17.1287
lfemur 0 0 0
ltibia 0
lfoot 0 0
ltoes 0
617
root -0.400741 17.8829 0.536212 -48.8391 88.0256 -65.6521
lowerback -8.96747 -1.59185 -1.28846
upperback -10.7178 -1.44718 1.53757
thorax -6.14312 -0.329111 2.25524
lowerneck -13.8836 -3.37017 -5.75052
upperneck 25.2355 -5.41853 9.34227
head 10.8316 -1.74594 3.66418
rclavicle -7.78677e-015 -6.01324e-015
rhumerus -36.0997 -4.80764 -78.9553
rradius 1.79821
rwrist 11.7128
rhand -17.7832 21.089
rfingers 7.12502
rthumb 8.47957 -8.72073
lclavicle -7.78677e-015 -6.01324e-015
lhumerus -99.8874 52.943 -16.8356
lradius 8.36346
lwrist -91.3456
lhand -13.407 3.41104
lfingers 7.12502
lthumb 12.7008 33.0048
rfemur -17.0517 12.5121 17.0662
rtibia 12.1305
rfoot -11.3181 -18.574
rtoes -16.7634
lfemur 0 0 0
ltibia 0
lfoot 0 0
ltoes 0
